<svg width="0" height="0" class="hidden">
  <symbol xmlns="http://www.w3.org/2000/svg" viewBox="0 0 105 112" id="authors">
    <path fill="#fdc800" d="M60.266 22.594C84.972 22.594 105 42.622 105 67.328c0 24.706-20.028 44.734-44.734 44.734-24.706 0-44.735-20.028-44.735-44.734 0-24.706 20.029-44.734 44.735-44.734z" opacity=".65"></path>
    <path fill="#44224b" d="M30.934 41.433c0 2.6-2.1 4.708-4.688 4.708-2.587 0-4.687-2.109-4.687-4.708s2.1-4.708 4.687-4.708c2.588 0 4.688 2.11 4.688 4.708zm22.501 0c0 2.6-2.1 4.708-4.688 4.708-2.587 0-4.687-2.109-4.687-4.708s2.1-4.708 4.687-4.708c2.588 0 4.688 2.11 4.688 4.708zM75 37.666c0 20.793-16.801 37.667-37.502 37.667-20.701 0-37.502-16.874-37.502-37.667C-.005 16.875 16.796 0 37.497 0c20.7 0 37.502 16.875 37.502 37.666zM32.472 7.985c5.25 8.74 14.775 14.615 25.65 14.615 1.726 0 3.414-.188 5.026-.452-5.25-8.739-14.776-14.614-25.651-14.614-1.725 0-3.413.188-5.025.451zM9.07 28.137c6.412-3.654 11.363-9.605 13.725-16.724A30.277 30.277 0 0 0 9.071 28.137zm58.427 9.53c0-2.938-.45-5.764-1.237-8.437-2.625.565-5.325.903-8.138.903-11.738 0-22.201-5.424-29.102-13.899-3.937 9.643-11.775 17.214-21.525 20.905.037.151 0 .34 0 .527 0 16.611 13.463 30.134 30 30.134 16.54 0 30.002-13.523 30.002-30.134z"
      opacity=".8"></path>
  </symbol>
  <symbol xmlns="http://www.w3.org/2000/svg" viewBox="0 0 108 112" id="librarian">
    <path fill="#fdc800" d="M63.188 22.531c24.697 0 44.718 20.029 44.718 44.735S87.885 112 63.188 112c-24.698 0-44.72-20.028-44.72-44.734 0-24.706 20.022-44.735 44.72-44.735z" opacity=".65"></path>
    <path fill="#44224b" d="M83.398 7.586v49.687c0 4.204-3.413 7.644-7.585 7.644H7.543c-4.173 0-7.586-3.44-7.586-7.644V7.586c0-4.205 3.413-7.644 7.585-7.644h68.27c4.173 0 7.586 3.44 7.586 7.644zM37.885 57.273V7.586H7.542v49.687zM75.813 7.586H45.47v49.687h30.343zm-26.55 13.377H72.02v5.733H49.263zm0 9.555H72.02v5.733H49.263zm0 9.555H72.02v5.733H49.263z"
      opacity=".8"></path>
  </symbol>
  <symbol xmlns="http://www.w3.org/2000/svg" viewBox="0 0 108 112" id="research">
    <path fill="#fdc800" d="M62.547 22.594c24.706 0 44.734 20.028 44.734 44.734 0 24.706-20.028 44.734-44.734 44.734-24.706 0-44.735-20.028-44.735-44.734 0-24.706 20.029-44.734 44.735-44.734z" opacity=".65"></path>
    <path fill="#44224b" d="M74.5 68.235c1.825 1.833 1.825 4.829 0 6.662a4.687 4.687 0 0 1-6.631 0L48.954 55.895v-3.532l-1.202-1.252c-6.23 5.365-14.731 8.137-23.766 6.617C11.614 55.627 1.733 45.254.22 32.735-2.094 13.822 13.75-2.095 32.576.23c12.462 1.52 22.787 11.446 24.879 23.876 1.513 9.076-1.247 17.615-6.587 23.876l1.246 1.206h3.516zM48.954 29.068c0-11.132-8.946-20.12-20.028-20.12-11.081 0-20.027 8.988-20.027 20.12 0 11.133 8.946 20.12 20.027 20.12 11.082 0 20.028-8.987 20.028-20.12z"
      opacity=".8"></path>
  </symbol>
  <symbol xmlns="http://www.w3.org/2000/svg" viewBox="0 0 109 111" id="societies">
    <path fill="#fdc800" d="M63.953 21.594c24.706 0 44.735 20.028 44.735 44.734 0 24.706-20.029 44.734-44.735 44.734S19.22 91.034 19.22 66.328c0-24.706 20.028-44.734 44.734-44.734z" opacity=".65"></path>
    <path fill="#44224b" d="M74.793 7.381v44.635c0 4.091-3.333 7.439-7.407 7.439H15.54L.727 74.333V7.381c0-4.092 3.333-7.44 7.406-7.44h59.253c4.074 0 7.407 3.348 7.407 7.44zm-7.407 0H8.133v52.074l7.407-7.44h51.846zM19.243 25.98h7.407v7.439h-7.407zm14.813 0h7.407v7.439h-7.407zm14.814 0h7.406v7.439H48.87z"
      opacity=".8"></path>
  </symbol>
</svg>