<svg width="0" height="0" class="hidden">
  <symbol xmlns="http://www.w3.org/2000/svg" viewBox="0 0 105 112" id="authors">
    <path fill="#fdc800" d="M60.266 22.594C84.972 22.594 105 42.622 105 67.328c0 24.706-20.028 44.734-44.734 44.734-24.706 0-44.735-20.028-44.735-44.734 0-24.706 20.029-44.734 44.735-44.734z" opacity=".65"></path>
    <path fill="#44224b" d="M30.934 41.433c0 2.6-2.1 4.708-4.688 4.708-2.587 0-4.687-2.109-4.687-4.708s2.1-4.708 4.687-4.708c2.588 0 4.688 2.11 4.688 4.708zm22.501 0c0 2.6-2.1 4.708-4.688 4.708-2.587 0-4.687-2.109-4.687-4.708s2.1-4.708 4.687-4.708c2.588 0 4.688 2.11 4.688 4.708zM75 37.666c0 20.793-16.801 37.667-37.502 37.667-20.701 0-37.502-16.874-37.502-37.667C-.005 16.875 16.796 0 37.497 0c20.7 0 37.502 16.875 37.502 37.666zM32.472 7.985c5.25 8.74 14.775 14.615 25.65 14.615 1.726 0 3.414-.188 5.026-.452-5.25-8.739-14.776-14.614-25.651-14.614-1.725 0-3.413.188-5.025.451zM9.07 28.137c6.412-3.654 11.363-9.605 13.725-16.724A30.277 30.277 0 0 0 9.071 28.137zm58.427 9.53c0-2.938-.45-5.764-1.237-8.437-2.625.565-5.325.903-8.138.903-11.738 0-22.201-5.424-29.102-13.899-3.937 9.643-11.775 17.214-21.525 20.905.037.151 0 .34 0 .527 0 16.611 13.463 30.134 30 30.134 16.54 0 30.002-13.523 30.002-30.134z"
      opacity=".8"></path>
  </symbol>
  <symbol xmlns="http://www.w3.org/2000/svg" viewBox="0 0 108 112" id="librarian">
    <path fill="#fdc800" d="M63.188 22.531c24.697 0 44.718 20.029 44.718 44.735S87.885 112 63.188 112c-24.698 0-44.72-20.028-44.72-44.734 0-24.706 20.022-44.735 44.72-44.735z" opacity=".65"></path>
    <path fill="#44224b" d="M83.398 7.586v49.687c0 4.204-3.413 7.644-7.585 7.644H7.543c-4.173 0-7.586-3.44-7.586-7.644V7.586c0-4.205 3.413-7.644 7.585-7.644h68.27c4.173 0 7.586 3.44 7.586 7.644zM37.885 57.273V7.586H7.542v49.687zM75.813 7.586H45.47v49.687h30.343zm-26.55 13.377H72.02v5.733H49.263zm0 9.555H72.02v5.733H49.263zm0 9.555H72.02v5.733H49.263z"
      opacity=".8"></path>
  </symbol>
  <symbol xmlns="http://www.w3.org/2000/svg" viewBox="0 0 108 112" id="research">
    <path fill="#fdc800" d="M62.547 22.594c24.706 0 44.734 20.028 44.734 44.734 0 24.706-20.028 44.734-44.734 44.734-24.706 0-44.735-20.028-44.735-44.734 0-24.706 20.029-44.734 44.735-44.734z" opacity=".65"></path>
    <path fill="#44224b" d="M74.5 68.235c1.825 1.833 1.825 4.829 0 6.662a4.687 4.687 0 0 1-6.631 0L48.954 55.895v-3.532l-1.202-1.252c-6.23 5.365-14.731 8.137-23.766 6.617C11.614 55.627 1.733 45.254.22 32.735-2.094 13.822 13.75-2.095 32.576.23c12.462 1.52 22.787 11.446 24.879 23.876 1.513 9.076-1.247 17.615-6.587 23.876l1.246 1.206h3.516zM48.954 29.068c0-11.132-8.946-20.12-20.028-20.12-11.081 0-20.027 8.988-20.027 20.12 0 11.133 8.946 20.12 20.027 20.12 11.082 0 20.028-8.987 20.028-20.12z"
      opacity=".8"></path>
  </symbol>
  <symbol xmlns="http://www.w3.org/2000/svg" viewBox="0 0 109 111" id="societies">
    <path fill="#fdc800" d="M63.953 21.594c24.706 0 44.735 20.028 44.735 44.734 0 24.706-20.029 44.734-44.735 44.734S19.22 91.034 19.22 66.328c0-24.706 20.028-44.734 44.734-44.734z" opacity=".65"></path>
    <path fill="#44224b" d="M74.793 7.381v44.635c0 4.091-3.333 7.439-7.407 7.439H15.54L.727 74.333V7.381c0-4.092 3.333-7.44 7.406-7.44h59.253c4.074 0 7.407 3.348 7.407 7.44zm-7.407 0H8.133v52.074l7.407-7.44h51.846zM19.243 25.98h7.407v7.439h-7.407zm14.813 0h7.407v7.439h-7.407zm14.814 0h7.406v7.439H48.87z"
      opacity=".8"></path>
  </symbol>
  <symbol viewBox="0 0 42 40" fill="none" xmlns="http://www.w3.org/2000/svg" id="empty_star">
    <path d="M21 1.618l4.464 13.738.112.346h14.808l-11.686 8.49-.294.214.113.345L32.98 38.49 21.294 30 21 29.785l-.294.214-11.686 8.49 4.464-13.738.112-.345-.294-.214-11.686-8.49h14.808l.112-.346L21 1.618z" stroke="#FDC800"></path>
  </symbol>
  <symbol viewBox="0 0 42 40" fill="none" xmlns="http://www.w3.org/2000/svg" id="filled_star">
    <path d="M21 0l4.94 15.202h15.983l-12.931 9.395 4.94 15.201L21 30.403 8.069 39.798l4.94-15.201L.076 15.202H16.06L21 0z" fill="#FDC800"></path>
  </symbol>
  <symbol viewBox="0 0 42 40" fill="none" xmlns="http://www.w3.org/2000/svg" id="half_filled_star">
    <path fill-rule="evenodd" clip-rule="evenodd" d="M21.449 1.618l4.413 13.584h15.985l-12.932 9.395 4.94 15.201-12.932-9.395-12.931 9.395 4.94-15.201L0 15.202h15.984m0 0L20.924 0l.525 1.618m-.526 27.55l11.03 8.012-4.213-12.965 11.029-8.013H25.136L20.923 3.236v25.931z"
      fill="#FDC800"></path>
  </symbol>
  <symbol xmlns="http://www.w3.org/2000/svg" viewBox="0 0 32 32" id="youtube">
    <title>youtube</title>
    <path d="M31.681 9.6s-.313-2.206-1.275-3.175C29.187 5.15 27.825 5.144 27.2 5.069c-4.475-.325-11.194-.325-11.194-.325h-.012s-6.719 0-11.194.325c-.625.075-1.987.081-3.206 1.356C.631 7.394.325 9.6.325 9.6s-.319 2.588-.319 5.181v2.425c0 2.587.319 5.181.319 5.181s.313 2.206 1.269 3.175c1.219 1.275 2.819 1.231 3.531 1.369 2.563.244 10.881.319 10.881.319s6.725-.012 11.2-.331c.625-.075 1.988-.081 3.206-1.356.962-.969 1.275-3.175 1.275-3.175s.319-2.587.319-5.181v-2.425c-.006-2.588-.325-5.181-.325-5.181zM12.694 20.15v-8.994l8.644 4.513-8.644 4.481z"></path>
  </symbol>
  <symbol xmlns="http://www.w3.org/2000/svg" viewBox="0 0 32 32" id="facebook">
    <title>facebook</title>
    <path d="M19 6h5V0h-5c-3.86 0-7 3.14-7 7v3H8v6h4v16h6V16h5l1-6h-6V7c0-.542.458-1 1-1z"></path>
  </symbol>
  <symbol xmlns="http://www.w3.org/2000/svg" viewBox="0 0 32 32" id="instagram">
    <title>instagram</title>
    <path d="M16 2.881c4.275 0 4.781.019 6.462.094 1.563.069 2.406.331 2.969.55a4.952 4.952 0 0 1 1.837 1.194 5.015 5.015 0 0 1 1.2 1.838c.219.563.481 1.412.55 2.969.075 1.688.094 2.194.094 6.463s-.019 4.781-.094 6.463c-.069 1.563-.331 2.406-.55 2.969a4.94 4.94 0 0 1-1.194 1.837 5.02 5.02 0 0 1-1.837 1.2c-.563.219-1.413.481-2.969.55-1.688.075-2.194.094-6.463.094s-4.781-.019-6.463-.094c-1.563-.069-2.406-.331-2.969-.55a4.952 4.952 0 0 1-1.838-1.194 5.02 5.02 0 0 1-1.2-1.837c-.219-.563-.481-1.413-.55-2.969-.075-1.688-.094-2.194-.094-6.463s.019-4.781.094-6.463c.069-1.563.331-2.406.55-2.969a4.964 4.964 0 0 1 1.194-1.838 5.015 5.015 0 0 1 1.838-1.2c.563-.219 1.412-.481 2.969-.55 1.681-.075 2.188-.094 6.463-.094zM16 0c-4.344 0-4.887.019-6.594.094-1.7.075-2.869.35-3.881.744-1.056.412-1.95.956-2.837 1.85a7.833 7.833 0 0 0-1.85 2.831C.444 6.538.169 7.7.094 9.4.019 11.113 0 11.656 0 16s.019 4.887.094 6.594c.075 1.7.35 2.869.744 3.881.413 1.056.956 1.95 1.85 2.837a7.82 7.82 0 0 0 2.831 1.844c1.019.394 2.181.669 3.881.744 1.706.075 2.25.094 6.594.094s4.888-.019 6.594-.094c1.7-.075 2.869-.35 3.881-.744 1.05-.406 1.944-.956 2.831-1.844s1.438-1.781 1.844-2.831c.394-1.019.669-2.181.744-3.881.075-1.706.094-2.25.094-6.594s-.019-4.887-.094-6.594c-.075-1.7-.35-2.869-.744-3.881a7.506 7.506 0 0 0-1.831-2.844A7.82 7.82 0 0 0 26.482.843C25.463.449 24.301.174 22.601.099c-1.712-.081-2.256-.1-6.6-.1z"></path>
    <path d="M16 7.781c-4.537 0-8.219 3.681-8.219 8.219s3.681 8.219 8.219 8.219 8.219-3.681 8.219-8.219A8.221 8.221 0 0 0 16 7.781zm0 13.55a5.331 5.331 0 1 1 0-10.663 5.331 5.331 0 0 1 0 10.663zM26.462 7.456a1.919 1.919 0 1 1-3.838 0 1.919 1.919 0 0 1 3.838 0z"></path>
  </symbol>
  <symbol xmlns="http://www.w3.org/2000/svg" viewBox="0 0 32 32" id="linkedin2">
    <title>linkedin2</title>
    <path d="M12 12h5.535v2.837h.079c.77-1.381 2.655-2.837 5.464-2.837C28.92 12 30 15.637 30 20.367V30h-5.769v-8.54c0-2.037-.042-4.657-3.001-4.657-3.005 0-3.463 2.218-3.463 4.509V30H12V12zM2 12h6v18H2V12zm6-5a3 3 0 1 1-6 0 3 3 0 0 1 6 0z"></path>
  </symbol>
  <symbol xmlns="http://www.w3.org/2000/svg" viewBox="0 0 32 32" id="twitter">
    <title>twitter</title>
    <path d="M32 7.075a12.941 12.941 0 0 1-3.769 1.031 6.601 6.601 0 0 0 2.887-3.631 13.21 13.21 0 0 1-4.169 1.594A6.565 6.565 0 0 0 22.155 4a6.563 6.563 0 0 0-6.563 6.563c0 .512.056 1.012.169 1.494A18.635 18.635 0 0 1 2.23 5.195a6.56 6.56 0 0 0-.887 3.3 6.557 6.557 0 0 0 2.919 5.463 6.565 6.565 0 0 1-2.975-.819v.081a6.565 6.565 0 0 0 5.269 6.437 6.574 6.574 0 0 1-2.968.112 6.588 6.588 0 0 0 6.131 4.563 13.17 13.17 0 0 1-9.725 2.719 18.568 18.568 0 0 0 10.069 2.95c12.075 0 18.681-10.006 18.681-18.681 0-.287-.006-.569-.019-.85A13.216 13.216 0 0 0 32 7.076z"></path>
  </symbol>
</svg>